<?xml version="1.0" encoding="UTF-8"?>
<svg width="100px" height="100px" color="white" viewBox="0 0 24 24" version="1.1" xmlns="http://www.w3.org/2000/svg" xmlns:xlink="http://www.w3.org/1999/xlink">
    <!-- Generator: Sketch 59.1 (86144) - https://sketch.com -->
    <title>noun_drag and drop_222537</title>
    <desc>Created with Sketch.</desc>
    <g id="Page-1" stroke="none" stroke-width="1" fill="none" fill-rule="evenodd">
        <g id="noun_drag-and-drop_222537" fill="currentColor" fill-rule="nonzero">
            <g id="Group">
                <path d="M21.5,24 L11.5,24 C10.122,24 9,22.878 9,21.5 L9,17.5 C9,17.224 9.224,17 9.5,17 C9.776,17 10,17.224 10,17.5 L10,21.5 C10,22.327 10.673,23 11.5,23 L21.5,23 C22.327,23 23,22.327 23,21.5 L23,11.5 C23,10.673 22.327,10 21.5,10 L16.5,10 C16.224,10 16,9.776 16,9.5 C16,9.224 16.224,9 16.5,9 L21.5,9 C22.878,9 24,10.122 24,11.5 L24,21.5 C24,22.878 22.878,24 21.5,24 Z" id="Path"></path>
                <g>
                    <path d="M7.5,15 L7,15 C6.724,15 6.5,14.776 6.5,14.5 C6.5,14.224 6.724,14 7,14 L7.5,14 C7.776,14 8,14.224 8,14.5 C8,14.776 7.776,15 7.5,15 Z" id="Path"></path>
                    <path d="M4.979,15 L3.968,15 C3.692,15 3.468,14.776 3.468,14.5 C3.468,14.224 3.692,14 3.968,14 L4.979,14 C5.255,14 5.479,14.224 5.479,14.5 C5.479,14.776 5.255,15 4.979,15 Z M1.954,14.924 C1.909,14.924 1.863,14.918 1.817,14.905 C1.412,14.79 1.039,14.572 0.739,14.273 C0.543,14.079 0.542,13.762 0.737,13.566 C0.932,13.371 1.249,13.369 1.444,13.564 C1.624,13.743 1.848,13.874 2.09,13.943 C2.356,14.018 2.51,14.295 2.434,14.561 C2.372,14.781 2.171,14.924 1.954,14.924 Z M0.5,12.557 C0.224,12.557 0,12.333 0,12.057 L0,11.046 C0,10.77 0.224,10.546 0.5,10.546 C0.776,10.546 1,10.77 1,11.046 L1,12.057 C1,12.333 0.776,12.557 0.5,12.557 Z M0.5,9.524 C0.224,9.524 0,9.3 0,9.024 L0,8.013 C0,7.737 0.224,7.513 0.5,7.513 C0.776,7.513 1,7.737 1,8.013 L1,9.024 C1,9.3 0.776,9.524 0.5,9.524 Z M0.5,6.492 C0.224,6.492 0,6.268 0,5.992 L0,4.981 C0,4.705 0.224,4.481 0.5,4.481 C0.776,4.481 1,4.705 1,4.981 L1,5.992 C1,6.268 0.776,6.492 0.5,6.492 Z M14.5,5.461 C14.224,5.461 14,5.237 14,4.961 L14,3.95 C14,3.674 14.224,3.45 14.5,3.45 C14.776,3.45 15,3.673 15,3.95 L15,4.961 C15,5.237 14.776,5.461 14.5,5.461 Z M0.5,3.459 C0.224,3.459 0,3.235 0,2.959 L0,2.5 C0,2.27 0.032,2.041 0.094,1.82 C0.169,1.553 0.447,1.396 0.711,1.475 C0.977,1.55 1.131,1.826 1.056,2.092 C1.019,2.224 1,2.361 1,2.5 L1,2.959 C1,3.235 0.776,3.459 0.5,3.459 Z M14.419,2.436 C14.202,2.436 14.003,2.294 13.939,2.076 C13.869,1.835 13.735,1.613 13.555,1.433 C13.359,1.239 13.357,0.922 13.551,0.726 C13.745,0.529 14.062,0.528 14.258,0.722 C14.559,1.02 14.781,1.391 14.899,1.795 C14.977,2.06 14.824,2.337 14.559,2.415 C14.512,2.43 14.465,2.436 14.419,2.436 Z M1.93799211,1.08 C1.722,1.08 1.522,0.939 1.458,0.721 C1.381,0.456 1.533,0.178 1.798,0.1 C2.025,0.034 2.261,0 2.5,0 L2.941,0 C3.217,0 3.441,0.224 3.441,0.5 C3.441,0.776 3.218,1 2.941,1 L2.5,1 C2.356,1 2.215,1.02 2.079,1.06 C2.032,1.074 1.985,1.08 1.93799211,1.08 Z M12.039,1 L11.028,1 C10.752,1 10.528,0.776 10.528,0.5 C10.528,0.224 10.752,0 11.028,0 L12.039,0 C12.315,0 12.539,0.224 12.539,0.5 C12.539,0.776 12.315,1 12.039,1 Z M9.006,1 L7.996,1 C7.72,1 7.496,0.776 7.496,0.5 C7.496,0.224 7.719,0 7.996,0 L9.007,0 C9.283,0 9.507,0.224 9.507,0.5 C9.507,0.776 9.283,1 9.006,1 Z M5.974,1 L4.963,1 C4.687,1 4.463,0.776 4.463,0.5 C4.463,0.224 4.687,0 4.963,0 L5.974,0 C6.25,0 6.474,0.224 6.474,0.5 C6.474,0.776 6.25,1 5.974,1 Z" id="Shape"></path>
                    <path d="M14.5,8 C14.224,8 14,7.776 14,7.5 L14,7 C14,6.724 14.224,6.5 14.5,6.5 C14.776,6.5 15,6.724 15,7 L15,7.5 C15,7.776 14.776,8 14.5,8 Z" id="Path"></path>
                </g>
                <path d="M12.55,18 L10.5,18 C9.122,18 8,16.878 8,15.5 L8,13.707 L7.552,13.259 C7.257,12.965 7.095,12.572 7.095,12.155 C7.095,11.738 7.257,11.346 7.552,11.051 C7.796,10.807 8.107,10.654 8.444,10.608 C8.414,10.173 8.565,9.728 8.897,9.396 C9.244,9.049 9.742,8.887 10.219,8.954 C10.276,8.658 10.418,8.375 10.647,8.146 C11.067,7.726 11.719,7.585 12.264,7.775 C12.337,7.545 12.465,7.328 12.647,7.146 C13.255,6.538 14.246,6.538 14.854,7.146 L16.404,8.696 C17.433,9.726 18,11.095 18,12.55 C18,15.555 15.555,18 12.55,18 Z M9,14.707 L9,15.5 C9,16.327 9.673,17 10.5,17 L12.55,17 C15.004,17 17,15.004 17,12.55 C17,11.362 16.537,10.244 15.697,9.404 L14.147,7.854 C13.928,7.635 13.573,7.635 13.354,7.854 C13.248,7.959 13.189,8.1 13.189,8.25 C13.189,8.4 13.247,8.541 13.353,8.646 C13.451,8.744 13.5,8.872 13.5,9 C13.5,9.128 13.451,9.256 13.354,9.354 C13.159,9.549 12.842,9.549 12.647,9.354 L12.147,8.854 C11.935,8.642 11.566,8.642 11.354,8.854 C11.135,9.073 11.135,9.428 11.354,9.647 L11.854,10.147 C11.951,10.244 12,10.372 12,10.5 C12,10.628 11.951,10.756 11.854,10.854 C11.659,11.049 11.342,11.049 11.147,10.854 L10.397,10.104 C10.185,9.892 9.816,9.892 9.604,10.104 C9.385,10.323 9.385,10.678 9.604,10.897 L10.854,12.147 C10.951,12.244 11,12.372 11,12.5 C11,12.628 10.951,12.756 10.854,12.854 C10.659,13.049 10.342,13.049 10.147,12.854 L9.052,11.759 C8.84,11.547 8.471,11.547 8.259,11.759 C8.153,11.865 8.095,12.006 8.095,12.155 C8.095,12.304 8.153,12.446 8.259,12.551 L10.854,15.146 C10.951,15.244 11,15.372 11,15.5 C11,15.628 10.951,15.756 10.854,15.854 C10.659,16.049 10.342,16.049 10.147,15.854 L9,14.707 Z" id="Shape"></path>
            </g>
        </g>
    </g>
</svg>
